# xmcd CD database file
#
# Track frame offsets:
#	150
#	54252
#	71562
#	110700
#	138742
#	170507
#	193640
#	212827
#	241490
#	254912
#	294190
#	318472
#	337557
#
# Disc length: 4638 seconds
#
# Revision: 4
# Processed by: cddbd v1.5.2PL0 Copyright (c) Steve Scherf et al.
# Submitted via: jetAudio 5
#
DISCID=c9121c0d
DTITLE=Various Artist - Melhores do Século - Jazz
DYEAR=2002
DGENRE=Jazz
TTITLE0=Miles Davis - Filles de Kilimanjaro
TTITLE1=Thelonious Monk - 'Round Midnight
TTITLE2=Gerry Mulligan, Chet Baker - My Funny Valentine
TTITLE3=Dave Brubeck, Gerry Mulligan - Limehouse Blues
TTITLE4=Chet Baker - Autumn Leaves
TTITLE5=Benny Goodman - I Got Rhythm
TTITLE6=Ben Webster and Sweets Edison - My Romance
TTITLE7=Duke Ellington - Ready Go
TTITLE8=Louis Armstrong - Big Butter and Egg Man
TTITLE9=Thelonious Monk - Just You, Just Me
TTITLE10=Stan Getz - Ligia
TTITLE11=Charles Mingus - Song with Orange
TTITLE12=George Benson - Stormy Weather
EXTD=YEAR: 2002
EXTT0=
EXTT1=
EXTT2=
EXTT3=
EXTT4=
EXTT5=
EXTT6=
EXTT7=
EXTT8=
EXTT9=
EXTT10=
EXTT11=
EXTT12=
PLAYORDER=
